<svg width="30" height="30" viewBox="0 0 30 30" fill="none" xmlns="http://www.w3.org/2000/svg">
    <g clip-path="url(#clip0_2_51)">
        <path d="M29.5312 0.184152C29.8995 0.452009 30.0501 0.809152 29.9832 1.25558L25.6975 26.9699C25.6416 27.2935 25.4631 27.5446 25.1617 27.7232C25.0055 27.8125 24.8325 27.8571 24.6428 27.8571C24.52 27.8571 24.3861 27.8292 24.241 27.7734L16.6573 24.6763L12.6059 29.615C12.405 29.8717 12.1316 30 11.7856 30C11.6405 30 11.5178 29.9777 11.4173 29.933C11.2053 29.8549 11.0351 29.7238 10.9067 29.5396C10.7784 29.3555 10.7142 29.1518 10.7142 28.9286V23.0859L25.1785 5.35714L7.28227 20.8426L0.66955 18.1306C0.256603 17.9743 0.0333891 17.6674 -9.3006e-05 17.2098C-0.0224144 16.7634 0.156157 16.4342 0.535621 16.2221L28.3928 0.15067C28.5602 0.0502232 28.7387 0 28.9285 0C29.1517 0 29.3526 0.0613839 29.5312 0.184152Z" fill="white"/>
    </g>
    <defs>
        <clipPath id="clip0_2_51">
            <rect width="30" height="30" fill="white"/>
        </clipPath>
    </defs>
</svg>
